<svg xmlns="http://www.w3.org/2000/svg" width="27.113" height="18.486" viewBox="0 0 27.113 18.486">
  <g id="eye" transform="translate(0 -74.667)">
    <g id="Group_388" data-name="Group 388" transform="translate(0 74.667)">
      <g id="Group_387" data-name="Group 387" transform="translate(0 0)">
        <path id="Path_145" data-name="Path 145" d="M174.364,170.667a3.7,3.7,0,1,0,3.7,3.7A3.7,3.7,0,0,0,174.364,170.667Z" transform="translate(-160.808 -165.121)" fill="#3b5286"/>
        <path id="Path_146" data-name="Path 146" d="M13.556,74.667A14.575,14.575,0,0,0,0,83.91a14.563,14.563,0,0,0,27.113,0A14.569,14.569,0,0,0,13.556,74.667Zm0,15.4a6.162,6.162,0,1,1,6.162-6.162A6.164,6.164,0,0,1,13.556,90.072Z" transform="translate(0 -74.667)" fill="#3b5286"/>
      </g>
    </g>
  </g>
</svg>
