<svg xmlns="http://www.w3.org/2000/svg" width="23.675" height="23.692" viewBox="0 0 23.675 23.692">
  <g id="refresh_1_" data-name="refresh (1)" transform="translate(-0.175 0)">
    <g id="Group_384" data-name="Group 384" transform="translate(0.175 0)">
      <g id="Group_383" data-name="Group 383" transform="translate(0 0)">
        <path id="Path_143" data-name="Path 143" d="M8.641.494a11.837,11.837,0,0,0-6.5,4.817,3.219,3.219,0,0,0-.387,1.231V2.383H.175V8.7H6.488V7.118H2.921a10.4,10.4,0,0,1,9.091-5.6,10.393,10.393,0,0,1,9.833,7.4l1.515-.45A11.837,11.837,0,0,0,8.641.494Z" transform="translate(-0.175 0)" fill="#fff"/>
      </g>
    </g>
    <g id="Group_386" data-name="Group 386" transform="translate(0.664 14.789)">
      <g id="Group_385" data-name="Group 385" transform="translate(0)">
        <path id="Path_144" data-name="Path 144" d="M26.967,300.063v1.578h3.567a10.4,10.4,0,0,1-9.091,5.6,10.393,10.393,0,0,1-9.833-7.4l-1.515.45A11.837,11.837,0,0,0,31.45,303.22a2.17,2.17,0,0,0,.253-1v4.159H33.28v-6.313Z" transform="translate(-10.095 -299.842)" fill="#fff"/>
      </g>
    </g>
  </g>
</svg>
